<mxfile host="app.diagrams.net" modified="2023-08-26T13:24:34.051Z" agent="Mozilla/5.0 (Windows NT 10.0; Win64; x64; rv:109.0) Gecko/20100101 Firefox/116.0" etag="SrpP2x9SjQjWwyv_IyxR" version="21.6.9" type="github">
  <diagram name="PÃ¡gina-1" id="CTYNy3MYYOO_HbAhW4qA">
    <mxGraphModel dx="768" dy="415" grid="1" gridSize="10" guides="1" tooltips="1" connect="1" arrows="1" fold="1" page="1" pageScale="1" pageWidth="827" pageHeight="1169" math="0" shadow="0">
      <root>
        <mxCell id="0" />
        <mxCell id="1" parent="0" />
        <mxCell id="vf_roqW_y5t0rq6oYZy0-7" value="" style="edgeStyle=orthogonalEdgeStyle;rounded=0;orthogonalLoop=1;jettySize=auto;html=1;entryX=0.469;entryY=-0.005;entryDx=0;entryDy=0;entryPerimeter=0;" edge="1" parent="1" source="vf_roqW_y5t0rq6oYZy0-1" target="vf_roqW_y5t0rq6oYZy0-2">
          <mxGeometry relative="1" as="geometry" />
        </mxCell>
        <mxCell id="vf_roqW_y5t0rq6oYZy0-1" value="Inicio" style="rounded=1;whiteSpace=wrap;html=1;arcSize=50;" vertex="1" parent="1">
          <mxGeometry x="354" y="10" width="106" height="40" as="geometry" />
        </mxCell>
        <mxCell id="vf_roqW_y5t0rq6oYZy0-11" style="edgeStyle=orthogonalEdgeStyle;rounded=0;orthogonalLoop=1;jettySize=auto;html=1;entryX=0.526;entryY=0.004;entryDx=0;entryDy=0;entryPerimeter=0;" edge="1" parent="1" source="vf_roqW_y5t0rq6oYZy0-2" target="vf_roqW_y5t0rq6oYZy0-3">
          <mxGeometry relative="1" as="geometry" />
        </mxCell>
        <mxCell id="vf_roqW_y5t0rq6oYZy0-2" value="Leia peso" style="shape=parallelogram;perimeter=parallelogramPerimeter;whiteSpace=wrap;html=1;fixedSize=1;size=20;" vertex="1" parent="1">
          <mxGeometry x="350.5" y="70" width="120" height="40" as="geometry" />
        </mxCell>
        <mxCell id="vf_roqW_y5t0rq6oYZy0-8" value="" style="edgeStyle=orthogonalEdgeStyle;rounded=0;orthogonalLoop=1;jettySize=auto;html=1;entryX=0.5;entryY=0;entryDx=0;entryDy=0;" edge="1" parent="1" source="vf_roqW_y5t0rq6oYZy0-3" target="vf_roqW_y5t0rq6oYZy0-4">
          <mxGeometry relative="1" as="geometry" />
        </mxCell>
        <mxCell id="vf_roqW_y5t0rq6oYZy0-3" value="Leia altura" style="shape=parallelogram;perimeter=parallelogramPerimeter;whiteSpace=wrap;html=1;fixedSize=1;size=20;" vertex="1" parent="1">
          <mxGeometry x="347" y="130" width="120" height="40" as="geometry" />
        </mxCell>
        <mxCell id="vf_roqW_y5t0rq6oYZy0-12" style="edgeStyle=orthogonalEdgeStyle;rounded=0;orthogonalLoop=1;jettySize=auto;html=1;entryX=0.5;entryY=0;entryDx=0;entryDy=0;" edge="1" parent="1" source="vf_roqW_y5t0rq6oYZy0-4" target="vf_roqW_y5t0rq6oYZy0-5">
          <mxGeometry relative="1" as="geometry" />
        </mxCell>
        <mxCell id="vf_roqW_y5t0rq6oYZy0-4" value="imc = peso / (altura * altura)" style="rounded=0;whiteSpace=wrap;html=1;" vertex="1" parent="1">
          <mxGeometry x="313.5" y="190" width="187" height="40" as="geometry" />
        </mxCell>
        <mxCell id="vf_roqW_y5t0rq6oYZy0-9" value="" style="edgeStyle=orthogonalEdgeStyle;rounded=0;orthogonalLoop=1;jettySize=auto;html=1;exitX=0.504;exitY=0.85;exitDx=0;exitDy=0;exitPerimeter=0;" edge="1" parent="1" source="vf_roqW_y5t0rq6oYZy0-5" target="vf_roqW_y5t0rq6oYZy0-6">
          <mxGeometry relative="1" as="geometry" />
        </mxCell>
        <mxCell id="vf_roqW_y5t0rq6oYZy0-5" value="escreva imc" style="shape=document;whiteSpace=wrap;html=1;boundedLbl=1;" vertex="1" parent="1">
          <mxGeometry x="347" y="250" width="120" height="50" as="geometry" />
        </mxCell>
        <mxCell id="vf_roqW_y5t0rq6oYZy0-6" value="Fim" style="rounded=1;whiteSpace=wrap;html=1;arcSize=50;" vertex="1" parent="1">
          <mxGeometry x="354" y="330" width="106" height="40" as="geometry" />
        </mxCell>
      </root>
    </mxGraphModel>
  </diagram>
</mxfile>
